<svg width="2048" height="2048" xmlns="http://www.w3.org/2000/svg"><title>Layer 1</title><path d="M1982.963 812.984L1695.775 312.05c-70.05-122.185-242.648-222.503-383.458-222.96l-577.464-1.77c-140.86-.456-314.014 98.85-384.824 220.63L59.853 807.062c-70.76 121.78-71.417 321.404-1.316 443.588l287.138 500.934c70.05 122.235 242.597 222.553 383.458 222.958l577.26 1.772c140.862.455 314.066-98.85 384.876-220.58l290.326-499.264c70.81-121.728 71.418-321.302 1.367-443.486zm-385.685 307.333l-191.374 329.046-232.018-279.646c-30.015-36.09-38.012-30.977-17.918 11.44 0 0 113.377 239.052 130.586 366.146-25.206 10.022-51.12 16.146-75.213 16.045l-384.824-1.165c-70.455-.202-156.703-50.412-191.728-111.504l-191.324-333.856c-12.35-21.612-20.094-48.185-23.637-76.023 4.504.052 9.06 0 13.767-.303l446.827-31.988c46.82-3.342 46.82-8.454-.05-11.288L430.71 969.94c-3.595-.202-7.037-.1-10.478-.1 3.796-27.434 11.59-53.55 23.94-74.81l193.4-332.64c35.38-60.89 121.98-110.543 192.386-110.34l384.875 1.164c20.448.05 42.162 4.707 63.673 12.25-2.53 3.845-4.96 7.692-6.883 12.096l-163.536 370.6c-18.98 42.973-12.2 46.77 14.98 8.504 0 0 178.115-250.39 270.03-311.432 4.962 6.327 9.618 12.755 13.465 19.436l191.374 333.855c35.076 61.092 34.773 160.904-.658 221.794z"/></svg>
