<?xml version="1.0"?>
<svg width="1600" height="1600" xmlns="http://www.w3.org/2000/svg" xmlns:svg="http://www.w3.org/2000/svg">
  <path id="svg_4" d="m1544.367188,621.151794l-222.942993,-388.87326c-54.380249,-94.850998 -188.366089,-172.727814 -297.676514,-173.081444l-448.282898,-1.37521c-109.349762,-0.35363 -243.767792,76.737354 -298.737366,171.274006l-225.261242,387.458801c-54.930267,94.536621 -55.441063,249.504395 -1.021595,344.35553l222.903717,388.873108c54.380188,94.890259 188.326752,172.76709 297.676544,173.081421l448.12561,1.375244c109.349792,0.353638 243.807068,-76.737305 298.776672,-171.234619l225.37915,-387.576721c54.969604,-94.497375 55.44104,-249.425842 1.060913,-344.276855zm-299.405273,238.581299l-148.563232,255.437439l-180.114685,-217.088379c-23.300171,-28.01532 -29.508362,-24.046753 -13.909363,8.880005c0,0 88.014038,185.576172 101.373352,284.238525c-19.567383,7.779785 -39.684875,12.534058 -58.387878,12.455566l-298.737427,-0.903809c-54.694519,-0.157104 -121.648132,-39.134766 -148.838226,-86.560303l-148.523956,-259.170227c-9.58725,-16.777649 -15.598907,-37.406006 -18.349335,-59.016541c3.496979,0.039246 7.033234,0 10.687408,-0.235779l346.870178,-24.832581c36.345093,-2.593262 36.345093,-6.56189 -0.039307,-8.762085l-349.070496,-21.178467c-2.789734,-0.157104 -5.461609,-0.078552 -8.133453,-0.078552c2.946899,-21.296326 8.997864,-41.570984 18.585114,-58.073608l150.134857,-258.227356c27.465179,-47.268311 94.693878,-85.813812 149.349091,-85.656616l298.776611,0.903687c15.874023,0.039307 32.730347,3.654175 49.429382,9.508667c-1.964539,2.986206 -3.850525,5.972412 -5.343689,9.390808l-126.952515,287.69635c-14.734497,33.358948 -9.46936,36.305786 11.630432,6.600952c0,0 138.268677,-194.377625 209.622986,-241.763824c3.850708,4.911499 7.465576,9.901581 10.45166,15.088135l148.563232,259.170319c27.229492,47.425476 26.993652,124.909302 -0.510742,172.177673z" fill="#000000" stroke-miterlimit="3" stroke-width="39.487869"/>
</svg>
